<?xml version="1.0" standalone="no"?>
<!DOCTYPE svg PUBLIC "-//W3C//DTD SVG 1.1//EN" "http://www.w3.org/Graphics/SVG/1.1/DTD/svg11.dtd" >
<svg xmlns="http://www.w3.org/2000/svg">
<defs>
  <font id="apicons" horiz-adv-x="36">
    <font-face font-family="apicons"
      units-per-em="1001" ascent="1001"
      descent="0" />
    <missing-glyph horiz-adv-x="0" />
    <glyph glyph-name="Line"
      unicode="&#xE001;"
      horiz-adv-x="1001" d="M76.1630436233333 924.8369563766668L908.3562821666666 92.6437178333334" />
    <glyph glyph-name="Oval"
      unicode="&#xE002;"
      horiz-adv-x="1001" d="M0 538.5815218116667A462.41847818833327 462.41847818833327 0 0 1 924.8369563766666 538.5815218116667A462.41847818833327 462.41847818833327 0 0 1 0 538.5815218116667" />
    <glyph glyph-name="arrow"
      unicode="&#xE003;"
      horiz-adv-x="1501.5" d="M708.1100851825 895.23959525L1380.344590625 93.640371825M685.556872 895.23959525L13.322364055 93.640371825" />
    <glyph glyph-name="arrow_down"
      unicode="&#xE004;"
      horiz-adv-x="2002" d="M1709.1100856830003 895.2395952500002L1036.8755797400001 93.6403718250001M342.087801055 895.23959525L1014.322309 93.6403718250002" />
    <glyph glyph-name="arrow_right"
      unicode="&#xE005;"
      horiz-adv-x="533.8666666666667" d="M80.08 20.02L479.0982796600001 476.0408913260001M80.0800000000001 947.36123482L479.0982796600001 491.3403428266666" />
    <glyph glyph-name="bell"
      unicode="&#xE006;"
      horiz-adv-x="834.1666666666667" d="M417.0833333333334 0C363.1078428755556 0 318.9460785622223 45.0449999999998 318.9460785622223 100.1L515.2205881044446 100.1C515.2205881044446 45.0449999999998 471.0588237911111 0 417.0833333333334 0zM98.1372558833333 300.3L98.1372558833333 575.5749999999999C98.1372558833333 730.73 201.1813748388889 855.855 343.480392255 890.89L343.480392255 925.925C343.480392255 965.965 377.8284315361112 1001 417.0833333333334 1001C456.3382351305556 1001 490.6862744116667 965.965 490.6862744116667 925.925L490.6862744116667 890.89C632.9852940522223 855.855 736.0294118955557 730.73 736.0294118955557 575.5749999999999L736.0294118955557 300.3L834.1666666666667 200.1999999999999L834.1666666666667 150.1499999999999L0 150.1499999999999L0 200.1999999999999L98.1372558833333 300.3z" />
    <glyph glyph-name="cart"
      unicode="&#xE007;"
      horiz-adv-x="1001" d="M300.3 200.1999999999999C245.245 200.1999999999999 200.2 155.155 200.2 100.1C200.2 45.0450000000001 245.245 0 300.3 0C355.355 0 400.4000000000001 45.0450000000001 400.4000000000001 100.1C400.4000000000001 155.155 355.355 200.1999999999999 300.3 200.1999999999999zM0 1001L0 900.9L100.1 900.9L280.2800000000001 520.52L210.21 400.4C205.205 385.385 200.2 365.365 200.2 350.35C200.2 295.2950000000001 245.245 250.25 300.3 250.25L900.9 250.25L900.9 350.35L320.32 350.35C315.315 350.35 310.31 355.355 310.31 360.36L310.31 365.3669644625001L355.355 450.451962585625L725.725 450.451962585625C765.765 450.451962585625 795.7950000000001 470.471962585625 810.8100000000001 500.501962585625L990.99 825.825C1001 835.835 1001 840.84 1001 850.85C1001 880.88 980.98 900.9 950.95 900.9L210.21 900.9L165.165 1001L0 1001zM800.8000000000001 200.1999999999999C745.745 200.1999999999999 700.6999999999999 155.155 700.6999999999999 100.1C700.6999999999999 45.0450000000001 745.745 0 800.8000000000001 0C855.855 0 900.9 45.0450000000001 900.9 100.1C900.9 155.155 855.855 200.1999999999999 800.8000000000001 200.1999999999999z" />
    <glyph glyph-name="checked"
      unicode="&#xE008;"
      horiz-adv-x="1001" d="M0 400.4000000000001L400.4 200.2000000000001M400.4 200.2000000000001L800.8 1001" />
    <glyph glyph-name="checkmark-verify"
      unicode="&#xE009;"
      horiz-adv-x="1001" d="M678.408499769 719.1331307160001C663.6629999999999 727.198043572 644.8749997689999 722.447478753 636.289499846 708.343087452L439.439 381.9534779060001L329.213499615 479.1743476520001C317.470999846 491.142826174 298.067000231 491.695217013 285.746999538 480.6473912240001C273.273 469.4154344880001 272.656999615 450.8550866820001 284.245499538 438.92343495L425.001499923 314.6353910700001C436.743999692 302.814217706 456.148000308 302.261825866 468.6219998459999 313.3464784450001C472.395000077 316.623999692 689.689 678.845391224 689.689 678.845391224C698.274499923 692.949782525 693.1539995379999 710.920912702 678.408499769 719.1331307160001zM492.838500154 986.2695651809C220.604999615 986.2695651809 0 775.2560866050001 0 514.858826482C0 254.498391147 220.604999615 43.4480866820002 492.838500154 43.4480866820002C765.033500231 43.4480866820002 985.677000308 254.498391147 985.677000308 514.858826482C985.677000308 775.2560866050001 765.033500231 986.2695651809 492.838500154 986.2695651809zM492.838500154 102.4434781370001C254.600500154 102.4434781370001 61.6769999846 287.163130254 61.6769999846 514.858826482C61.6769999846 742.7386526560001 254.600500154 927.2741739261 492.838500154 927.2741739261C730.8839998459999 927.2741739261 923.999999923 742.7386526560001 923.999999923 514.858826482C923.999999923 287.163130254 730.8839998459999 102.4434781370001 492.838500154 102.4434781370001z" />
    <glyph glyph-name="close"
      unicode="&#xE00A;"
      horiz-adv-x="1001" d="M629.4346947777777 500.5L994.8863591333334 839.9615135022223C1003.037880288889 848.1125541777777 1003.037880288889 861.31072027 994.8863591333334 869.4617609455556L869.4573109444444 994.8834584577778C865.5837078777778 998.809000077778 860.2363102666668 1001 854.7324007444444 1001C849.1763279999999 1001 843.8811047333334 998.809000077778 839.9553273222223 994.8834584577778L500.5 655.4480265666667L161.0446726777779 994.8834584577778C153.1931289777778 1002.7345416977778 139.3420695333334 1002.7345416977778 131.5426890555556 994.8834584577778L6.1136408666667 869.4617609455556C-2.0378802888888 861.31072027 -2.0378802888888 848.1125541777777 6.1136408666667 839.9615135022223L345.5689681888889 500.526081611111L6.1136408666667 161.0906519444444C-2.0378802888888 152.9396090444443 -2.0378802888888 139.7414462888888 6.1136408666667 131.590403388889L131.5426890555556 6.1687069888886C135.4162921222223 2.2431631444446 140.7636897333333 0.052163222222 146.2675992555555 0.052163222222C151.823672 0.052163222222 157.1188952666667 2.2431631444446 161.0446726777779 6.1687069888886L500.5 345.6041366555555L839.9553273222223 6.1687069888886C843.8811047333334 2.2431631444446 849.1763279999999 0 854.7324007444444 0C860.2363102666668 0 865.5837078777778 2.2431631444446 869.4573109444444 6.1687069888886L994.8863591333334 131.5382401666666C1003.037880288889 139.6892830666667 1003.037880288889 152.9396090444443 994.8863591333334 161.0906519444444L629.4346947777777 500.5z" />
    <glyph glyph-name="exclamation-mark"
      unicode="&#xE00B;"
      horiz-adv-x="1001" d="M45.5 519.6579115A455 455 0 0 1 955.5 519.6579115A455 455 0 0 1 45.5 519.6579115" />
    <glyph glyph-name="facebook"
      unicode="&#xE00C;"
      horiz-adv-x="529.9411764705883" d="M500.8344076029412 1000.793608247374L376.1982418311765 1001C236.1737849058824 1001 145.6838288788235 905.1826289388237 145.6838288788235 756.879834887647L145.6838288788235 644.3240927652942L20.3677391564706 644.3240927652942C9.5389411764706 644.3240927652942 0.7699145395118 635.2634947482353 0.7699145395118 624.0873815647059L0.7699145395118 461.0069381564706C0.7699145395118 449.8308249729412 9.5489400477059 440.7805466770588 20.3677391564706 440.7805466770588L145.6838288788235 440.7805466770588L145.6838288788235 29.2766709529412C145.6838288788235 18.1005589470589 154.4528556158824 9.0502765294118 165.2816535958824 9.0502765294118L328.7835050500001 9.0502765294118C339.61230303 9.0502765294118 348.3813297670589 18.110875135294 348.3813297670589 29.2766709529412L348.3813297670589 440.7805466770588L494.9050653605882 440.7805466770588C505.7338633405882 440.7805466770588 514.5028900776471 449.8308249729412 514.5028900776471 461.0069381564706L514.5628835405882 624.0873815647059C514.5628835405882 629.4535670952941 512.4931134852942 634.5927217041176 508.8235204994118 638.3903296358824C505.1539281023529 642.1879381564706 500.1544830635294 644.3240927652942 494.9550600111764 644.3240927652942L348.3813297670589 644.3240927652942L348.3813297670589 739.739C348.3813297670589 785.5992473741177 358.9701544841177 808.8802368705883 416.8537290564707 808.8802368705883L500.8144093894118 808.9111960341177C511.6332085570589 808.9111960341177 520.4022352941176 817.9717940511764 520.4022352941176 829.1375875135294L520.4022352941176 980.5672165112354C520.4022352941176 991.7226907234706 511.6432073694118 1000.7729690723472 500.8344076029412 1000.793608247374z" />
    <glyph glyph-name="file-pdf"
      unicode="&#xE00D;"
      horiz-adv-x="1001" d="M859.4931699900001 642.95500087L834.6445471 642.95500087L834.6445471 758.92585951C834.6445471 759.63733755 834.5048766599999 760.41014959 834.40329791 761.12162672C834.3525089899999 765.72169765 832.86692489 770.22363418 829.5910204400001 773.8178229600001L629.81164701 994.2900296602C629.7608580899999 994.3390970786 629.71006917 994.3881645061 629.65927934 994.4372319336C628.4657333499999 995.7252518304 627.0817270900001 996.7802014625 625.63423468 997.6879488212C625.1898289000001 997.9823533771 624.7454231199999 998.2154236418 624.30101734 998.4607607702C623.0058926 999.1354378551 621.6726761699999 999.7119800941 620.2886699100001 1000.0922526413C619.88235582 1000.19038749084 619.59031771 1000.32532290873 619.19670176 1000.42345775827C617.69841952 1000.75466287615 616.11125667 1001 614.52409382 1001L123.59555208 1001C101.184811 1001 82.926089064 983.360260792 82.926089064 961.758326984L82.926089064 642.95500087L58.077466083 642.95500087C25.991380233 642.95500087 0 617.85701341 0 586.8464010499999L0 295.12829346C0 264.1299479 25.991380233 239.01969273 58.077466083 239.01969273L82.926089064 239.01969273L82.926089064 39.3030092C82.926089064 17.6397403 101.184811 0 123.59555208 0L793.9750837199999 0C816.39852203 0 834.6445471 17.6397403 834.6445471 39.3030092L834.6445471 238.97062553L859.4931699900001 238.97062553C891.5919530699999 238.97062553 917.5833303 264.1299479 917.5833303 295.0792262600001L917.5833303 586.8464010499999C917.5833303 617.85701341 891.5919530699999 642.95500087 859.4931699900001 642.95500087zM123.59555208 961.758326984L594.1957112 961.758326984L594.1957112 760.88855661C594.1957112 750.05692307 603.32507235 741.28612012 614.52409382 741.28612012L793.9750837199999 741.28612012L793.9750837199999 642.95500087L123.59555208 642.95500087L123.59555208 961.758326984zM622.37102746 439.4110557200001C622.37102746 383.3024559000001 601.19192497 344.62505805 571.9246405600001 320.66788845C539.9782251500001 295.0301581499999 491.37294752 282.8614370400001 431.96226437 282.8614370400001C396.4479064 282.8614370400001 371.1929703300001 285.02040385 354.08970233 287.17937066L354.08970233 575.05795165C379.28115225 578.99561265 412.16716814 581.14231266 446.83080715 581.14231266C504.42577549 581.14231266 541.7685445899999 571.1816255599999 571.035829 549.86182979C602.57593123 527.24174685 622.37102746 491.15265563 622.37102746 439.4110557200001zM92.55064546 285.8790834900001L92.55064546 575.05795165C113.67895812 578.55400603 143.39064831 581.14231266 185.25365768 581.14231266C227.5610728300001 581.14231266 257.7679577200001 573.34059237 278.00745973 557.66355008C297.34545295 542.90652234 310.3855836900001 518.5200120100001 310.3855836900001 489.81556806C310.3855836900001 461.11112502 300.51977865 436.7736818900001 282.46421294 420.23795996C259.05038523 398.96723139 224.43753605 389.38681691 183.90774402 389.38681691C174.87996071 389.38681691 166.80447602 389.81615673 160.50661354 390.67483637L160.50661354 285.8790834900001L92.55064546 285.8790834900001zM123.59555208 49.8893031L793.9750837199999 49.8893031L793.9750837199999 238.97062553L123.59555208 238.97062553L123.59555208 49.8893031zM852.8524804799999 524.65344022L736.2912338599999 524.65344022L736.2912338599999 457.66413784L845.20870343 457.66413784L845.20870343 403.7513052300001L736.2912338599999 403.7513052300001L736.2912338599999 285.8790834900001L667.44645513 285.8790834900001L667.44645513 578.99561265L852.8524804799999 578.99561265L852.8524804799999 524.65344022zM437.5662564 500.5C476.4553384500001 500.5 500.79869749 473.05560393 500.49723178 421.14648758C500.49723178 361.47975591 473.77564234 333.34532959 432.8181703300001 333.66943428C427.19918423 333.66943428 420.94376961 333.66943428 417.08333303 334.80903001L417.08333303 498.25217351C420.94376961 499.36040427 427.4587799300001 500.5 437.5662564 500.5zM250.25 460.96432746C250.25 433.4402044700001 227.31784985 417.0833330300001 190.20499498 417.0833330300001C180.16086816 417.0833330300001 172.79258997 417.47733937 166.83333303 418.6706141800001L166.83333303 498.07967846C171.87478672 499.3179828 181.51818321 500.5 195.71181357 500.5C230.49784303 500.5 250.25 485.73040971 250.25 460.96432746z" />
    <glyph glyph-name="home"
      unicode="&#xE00E;"
      horiz-adv-x="1072.5" d="M0 487.954999675C0 487.954999675 32.9550000065 427.0175001950001 105.105 487.954999675L535.470000065 852.0687496749999L939.21750065 490.246250065C1022.62875 430.088749805 1053.8287474 490.246250065 1053.8287474 490.246250065L535.470000065 959.660000013L0 487.954999675zM143.22750013 49.5950026C143.22750013 49.5950026 142.447500195 26.0000026 165.311249675 26.0000026C194.02499974 26.0000026 430.950000195 26.3412506499999 430.950000195 26.3412506499999L431.339999805 244.0100019500001C431.339999805 244.0100019500001 427.6837500650001 279.8412474000001 462.540000065 279.8412474000001L572.6174997400001 279.8412474000001C613.95749987 279.8412474000001 611.27624987 244.0100019500001 611.27624987 244.0100019500001L610.88625026 26.92624935L870.8212513000001 26.92624935C900.16874805 26.92624935 898.8524974 56.27375325 898.8524974 56.27375325L898.8524974 457.68124974L532.252500065 783.526249935L143.22750013 457.68124974L143.22750013 49.5950026zM786.5 858L715 858L715.2351992499999 731.5903487749999L786.5 643.5z" />
    <glyph glyph-name="more"
      unicode="&#xE00F;"
      horiz-adv-x="166.83333333333334" d="M0 83.4166666666666A83.41666666666667 83.41666666666667 0 0 1 166.8333333333334 83.4166666666666A83.41666666666667 83.41666666666667 0 0 1 0 83.4166666666666M0 472.6944444444445A83.41666666666667 83.41666666666667 0 0 1 166.8333333333334 472.6944444444445A83.41666666666667 83.41666666666667 0 0 1 0 472.6944444444445M0 917.5833333333334A83.41666666666667 83.41666666666667 0 0 1 166.8333333333334 917.5833333333334A83.41666666666667 83.41666666666667 0 0 1 0 917.5833333333334" />
    <glyph glyph-name="question-mark"
      unicode="&#xE010;"
      horiz-adv-x="1001" d="M0 500.5A500.5 500.5 0 0 1 1001 500.5A500.5 500.5 0 0 1 0 500.5" />
    <glyph glyph-name="reload"
      unicode="&#xE011;"
      horiz-adv-x="1001" d="M300.75195696 216.69122566C220.26854304 281.4314867 168.70281519 380.80668262 168.70281519 492.1411495C168.70281519 656.89185653 281.44588017 794.76872566 433.9058805900001 834.1542263599999L433.9058805900001 925.21593255C232.14495668 884.31135611 80.347826104 705.97182383 80.347826104 492.1411495C80.347826104 360.09200864 138.40415225 241.63169303 230.21158706 160.7063676400001C301.3043478900001 94.44702995 345.5508911400001 182.82963881 300.75195696 216.69122566zM810.55389142 826.91789999C765.34066336 867.79485611 698.9708480300001 801.4526611 742.47166266 768.6682367C823.7008042900001 703.92797566 875.81892398 604.13848677 875.81892398 492.1411495C875.81892398 327.50092193 763.0758589999999 189.51357425 610.61585858 150.2385521L610.61585858 59.0663710000001C812.3767824899999 100.0814214400001 964.1739107 278.42095463 964.1739107 492.1411495C964.1739107 626.01318234 904.62613059 745.88209514 810.55389142 826.91789999zM472.95994564 757.75850878L616.77502159 843.95917151C637.71065176 856.47083431 637.71065176 876.88169296 616.88550014 889.50383431L471.66182609 977.306432557C450.83667356 989.928573816 434.01635914 980.455062951 434.12683678 956.066986875L434.8725654 779.21891047C434.8725654 754.85845435 452.02431547 745.24684598 472.95994564 757.75850878zM572.85991308 226.08187784L427.63623903 138.25166082C406.8110874100001 125.62951947 406.8110874100001 105.24628023 427.7467175800001 92.6241388799999L571.56179353 6.5339547C592.4974237 -5.9777081 609.64917377 3.6062845 609.75965232 27.9943572999999L610.50538003 204.8148129299999C610.50538003 229.2028893700001 593.68506561 238.70401919 572.85991308 226.08187784z" />
    <glyph glyph-name="save"
      unicode="&#xE012;"
      horiz-adv-x="1001" d="M987.961975 783.5909948533333C979.2824708333334 804.4080836458334 968.8545533333335 762.0434204716666 956.67572 774.2317157575L774.1992591666667 956.66620049C762.05129 968.8544957758334 745.5231116666668 979.2830372325 724.6756183333333 987.95182486C703.8189491666668 996.6606066083332 684.7106933333334 1001 667.3333333333334 1001L62.5716758333334 1001C45.1943158333333 1001 30.4262291666667 994.9008527791668 18.2373858333333 982.7525524483332C6.0894166666667 970.614249605 0 955.8063206358333 0 938.42875126L0 62.5712504083333C0 45.1936818666667 6.0894166666667 30.3857470583332 18.2373858333333 18.2474458833333C30.4262291666667 6.09914305 45.1943158333333 0 62.5716758333334 0L938.4283241666668 0C955.8156941666668 0 970.6138108333334 6.09914305 982.7626141666668 18.2474458833333C994.9105833333334 30.3857470583332 1001 45.1936818666667 1001 62.5712504083333L1001 667.3366658291666C1001 684.7142360391666 996.670675 762.6939178191667 987.961975 783.5909948533333zM412.1767650000001 863.6039220141666C412.1767650000001 868.9305549925 414.3681208333334 873.53253988 418.7099583333334 877.4286996475C423.0935041666667 881.2872143075 428.2603325 883.2352937741666 434.2638300000001 883.2352937741666L566.7787125 883.2352937741666C572.7396675 883.2352937741666 577.9064958333333 881.3248585808333 582.2900416666668 877.4286996475C586.6744216666667 873.53253988 588.8232350000001 868.9305549925 588.8232350000001 863.6039220141666L588.8232350000001 667.3278445166667C588.8232350000001 662.0012065333333 586.6318791666666 657.4086352166667 582.2900416666668 653.5124762833334C577.9064958333333 649.6539632916667 572.7396675 647.705883825 566.7787125 647.705883825L434.2638300000001 647.705883825C428.2603325 647.705883825 423.0935041666667 649.6539632916667 418.7099583333334 653.5124762833334C414.3681208333334 657.4086352166667 412.1767650000001 662.0012065333333 412.1767650000001 667.3278445166667L412.1767650000001 863.6039220141666zM235.5294608333334 117.7647053916667L706.5883825 117.7647053916667L706.5883825 353.294116175L235.5294608333334 353.294116175L235.5294608333334 117.7647053916667zM883.2356866666668 58.8823568666667L800.7591258333334 58.8823568666667L800.7591258333334 326.79261615C800.7591258333334 343.9760991333333 794.7714775000001 358.5608192833334 782.736955 370.606060825C770.7316283333333 382.61177955 756.1370483333334 388.6294578833333 738.9640591666667 388.6294578833333L203.1137441666667 388.6294578833333C185.940755 388.6294578833333 171.356185 382.61177955 159.3116525 370.606060825C147.3063258333334 358.5608192833334 141.2886475 343.9760991333333 141.2886475 326.79261615L141.2886475 58.8823568666667L58.8821566666667 58.8823568666667L58.8821566666667 883.2352937741666L141.2886475 883.2352937741666L141.2886475 615.3250353249999C141.2886475 598.141544 147.3063258333334 583.55682385 159.3116525 571.5115823083333C171.356185 559.5058719250001 185.940755 553.48818525 203.1137441666667 553.48818525L574.0718316666668 553.48818525C591.2548308333334 553.48818525 605.8786066666667 559.5058719250001 617.8839333333333 571.5115823083333C629.88926 583.55682385 635.9069383333334 598.141544 635.9069383333334 615.3250353249999L635.9069383333334 883.2352937741666C642.3592175 883.2352937741666 650.7284116666667 881.110825595 661.0337066666667 876.8223647516667C671.3398358333334 872.5042592933333 678.6312866666666 868.21579845 682.9197375 863.9372183108333L863.898035 682.94241015C868.2265258333334 678.6638300108333 872.5141425 671.2528948125 876.7925833333334 660.7096078916666C881.0810341666667 650.2157161499999 883.2356866666668 641.9549970166667 883.2356866666668 635.9373186833334L883.2356866666668 58.8823568666667z" />
    <glyph glyph-name="search"
      unicode="&#xE013;"
      horiz-adv-x="1001" d="M987.7923611111112 132.688111111111L740.8790277777778 379.6570555555554C781.0302499999999 441.8858888888888 804.7761944444444 515.7652499999999 804.7761944444444 595.205722222222C804.7761944444444 815.1198611111109 625.7640277777778 994.0208055555554 405.8776944444444 994.0208055555554C185.9079444444444 994.0208055555554 7.0626111111111 815.1198611111109 7.0626111111111 595.205722222222C7.0626111111111 375.2359722222222 185.93575 196.3628333333333 405.8776944444444 196.3628333333333C485.290361111111 196.3628333333333 559.1697222222223 219.9697499999999 621.4263611111111 260.1487777777777L868.3396944444445 13.2354444444444C876.5423333333334 4.9771944444444 890.0836388888888 4.9771944444444 898.2584722222223 13.2354444444444L987.7923611111112 102.7971388888889C996.1062222222222 110.9997777777777 996.1062222222222 124.4854722222222 987.7923611111112 132.688111111111zM133.7447222222222 595.2335277777777C133.7447222222222 745.2723055555556 255.8389166666667 867.3943055555555 405.9055 867.3943055555555C555.9998888888889 867.3943055555555 678.0384722222223 745.2723055555556 678.0384722222223 595.2335277777777C678.0384722222223 445.1391388888889 555.9998888888889 323.0449444444445 405.9055 323.0449444444445C255.8111111111111 323.0449444444444 133.7447222222222 445.1391388888889 133.7447222222222 595.2335277777777z" />
    <glyph glyph-name="seating"
      unicode="&#xE014;"
      horiz-adv-x="1001" d="M997.8677709 556.0746868147058C996.2848424941176 570.1456437147059 979.8782522941178 580.7193456770588 965.6914914705882 580.7193456770588C919.8238049 580.7193456770588 879.1220555764706 607.6508149476471 862.0525030764707 649.3012944064706C844.6142175058824 691.9610992411765 855.8585918235294 741.7122489247058 890.0424003058823 773.0683595929412C900.8025909235294 782.9046219111765 902.1099028117648 799.3703977082353 893.085351982353 810.8081711141176C869.6095879058823 840.6186370935294 842.9269966764706 867.5463814664706 813.7936630352941 890.8837602370588C802.3854073529412 900.0384487211765 785.6473330588236 898.7646879976471 775.7549623352941 887.8110924035294C745.9214115294118 854.7715317317648 692.3327646529411 842.4920333241176 650.9233495470588 859.769738474706C607.8304467529412 877.8966172447059 580.6562214394119 921.5620219688236 583.315541632353 968.4341751790588C584.190808377647 983.1569102060588 573.4306183488236 995.9578311506355 558.752215197647 997.6673518694236C521.3653044600001 1001.9914336785293 483.6506351147059 1002.1255137364058 446.1519886352941 997.9653075450882C431.6411893911765 996.3637957626294 420.880999362353 983.8645549674118 421.3689138482353 969.3280422119412C423.0002618017647 922.9177204305882 395.4982743476471 880.01582669 352.8336941541177 862.5407261058824C311.9196462735294 845.8291370941176 258.7071751970589 858.0043513217647 228.9332198094118 890.7496804088236C219.0929911758824 901.535676217647 202.6268096794118 902.8615790311763 191.1626822988236 893.9266330111765C161.1652548388235 870.3918582182353 133.8830157370588 843.4417674035294 110.1912305611765 813.8771146388235C100.9506527441177 802.3834742452941 102.3101090776471 785.7240273235294 113.1783099505882 775.8356235041176C148.0139119282353 744.2895654311765 159.2620164429412 694.1063800258823 141.1644869929412 650.9549487617647C123.8863561229412 609.8147178652941 81.1659077641177 583.3003870811765 32.2590020694118 583.3003870811765C16.3887465506471 583.810636232353 5.0847743358176 573.1587202517647 3.3491397292294 558.7302167505882C-1.0532639411412 521.1282099552941 -1.1054074678706 482.8148336776471 3.1331165336059 444.9074223711765C4.7048714830765 430.7768741747059 21.6105484889412 420.2962828770589 35.9537435315882 420.2962828770589C79.5382847082353 421.4098924329412 121.3834669105883 394.4262793058823 138.9372137094118 351.7106121941177C156.4350917541177 309.0508067705882 145.1869878282353 259.3294527352942 110.9510366670588 227.9472666058824C100.2429904947059 218.1110048764706 98.8835341611765 201.6713051294117 107.9080891123529 190.2335258352941C131.16410307 160.613011382353 157.8504162529412 133.6591962588236 187.0880381958824 110.1281416529412C198.5558898852941 100.8877928882353 215.2418191452941 102.191348082353 225.1826105941177 113.1449436764706C255.1278941976471 146.2664438529412 308.7128197094118 158.5235946411765 349.9583510952941 141.2123713C393.1592647335295 123.1413595176471 420.333492402353 79.4796767470588 417.6741727982353 32.5814547882353C416.8063552594118 17.8512687294118 427.6186885558824 5.0279994470588 442.2374992329412 3.3445529764705C461.363000922353 1.1136066117648 480.6039632511765 0 499.8970688476471 0C518.2106211635294 0 536.5278977882352 1.0055987117646 554.8414501041176 3.0428751294118C569.3559742458823 4.6443868058824 580.1087144794118 17.1436265 579.6207999935294 31.7062098294117C577.94103367 78.0904595058823 605.4914394941177 120.9923538352941 648.1001527000001 138.437658182353C689.2898129764706 155.2609823470588 742.2788137470588 142.9479639823529 772.0564969764706 110.2361554411765C781.9525890647059 99.4725025411765 798.3033116882353 98.1726746000001 809.8307570294118 107.0778237941177C839.7723157352941 130.5567321882353 866.9986854941177 157.4844742058823 890.8022064117647 187.1310676529412C900.0390634529413 198.5986355294118 898.7354729294117 215.2841514352941 887.8114068352941 225.1688321235295C852.9758001470587 256.7148878411765 841.671831 306.9055224529413 859.7693575058825 350.0271598352942C876.7830483176471 390.6198943705882 917.9168410176472 417.8753932294118 962.1606288411764 417.8753932294118L968.350806952941 417.7152420617647C982.7014550294118 416.5494904158824 995.9049394411765 427.6036458811765 997.6443005941176 442.2518924352941C1002.0541531 479.8874191876471 1002.1062934235295 518.1672749194117 997.8677709 556.0746868147058zM501.2937706247059 332.4961934411764C409.2306453529412 332.4961934411764 334.3450887247059 407.3799023411765 334.3450887247059 499.440760642353C334.3450887247059 591.4978928682353 409.2306453529412 666.3853284323529 501.2937706247059 666.3853284323529C593.3531721764706 666.3853284323529 668.238729982353 591.4978928682353 668.238729982353 499.440760642353C668.238729982353 407.3799023411765 593.3531721764706 332.4961934411764 501.2937706247059 332.4961934411764z" />
    <glyph glyph-name="sent-mail"
      unicode="&#xE015;"
      horiz-adv-x="1072.5" d="M0.24011194064 999.65857487925L0.24011194064 4.0160620500001L1070.9036338 4.0160620500001L1070.9036338 999.65857487925L0.24011194064 999.65857487925zM1065.4487129 995.673393572C1060.68248715 999.86633734845 1053.89932505 1000.83919678743 1048.14464755 998.16986345505L9.268320919 513.27983564C3.6737126855 510.6547231500001 0.064029850742 505.050731185 -2.7e-12 498.863827605C-0.064029850742 492.676924025 3.4215951484 486.99253031 8.956175371 484.258875815L302.953237015 339.314879475C308.347751855 336.6455463800001 314.77074629 337.2606186950001 319.584990725 340.8706508350001L605.438255565 555.4906786L381.03763984 323.612445585C377.832145405 320.2998999200001 376.207387985 315.7773089900001 376.55154823 311.1743170250001L398.90597032 18.87025855C399.390196205 12.38586635 403.720214755 6.85825855 409.863078625 4.8160541000001C411.5038434650001 4.2854025500001 413.192630565 4.0160620500001 414.865410245 4.0160620500001C419.431538955 4.0160620500001 423.885615725 5.99393795 426.979057505 9.5919109L583.02380565 191.24727765L775.94174515 98.6447318999999C780.1156935 96.63468815 784.97395405 96.55831185 789.2279394999999 98.4276436C793.47792095 100.27688385 796.7154266499999 103.9070175000001 798.1080750499999 108.3492052500001L1070.1709160999999 978.7609156325C1072.06379995 984.839277136 1070.2189355 991.464369467 1065.4487129 995.673393572z" />
    <glyph glyph-name="triangle"
      unicode="&#xE016;"
      horiz-adv-x="1801.8" d="M900.9 0L1801.8 1001L0 1001z" />
    <glyph glyph-name="twitter"
      unicode="&#xE017;"
      horiz-adv-x="1215.5" d="M1213.1353448500001 880.757868705C1168.4959285999998 860.75223663 1120.53462235 847.229157775 1070.18969915 841.1489207550001C1121.57241625 872.280499805 1161.03707005 921.576157645 1179.6226084500001 980.3190526415C1131.52624585 951.4888157775 1078.2669683499998 930.55642108 1021.5720658 919.27721028C976.17444925 968.165763136 911.487577 998.7106315758 839.9010191 998.7106315758C702.4500075450001 998.7106315758 591.014958105 886.088552635 591.014958105 747.169868445C591.014958105 727.4540001299999 593.2161263600001 708.25539499 597.4597142800001 689.84226311C390.6114691050001 700.335999935 207.217871575 800.47910514 84.46421841 952.67181581C63.040142308 915.51986812 50.7643030895 872.309237085 50.7643030895 826.208157775C50.7643030895 738.934368315 94.702377055 661.9387896549999 161.48616484 616.82913149C120.68753983 618.13665771 82.310437495 629.451789395 48.7574249305 648.29357879C48.7337309745 647.244684515 48.7337309745 646.19099974 48.7337309745 645.13013136C48.7337309745 523.252394665 134.527180645 421.5862365000001 248.38138325 398.4722370200001C227.49989834 392.7272635000001 205.50953709 389.6428421600001 182.810725955 389.6428421600001C166.772286395 389.6428421600001 151.181662775 391.22336825 135.981989 394.1641053350001C167.65607144 294.231737085 259.569669645 221.4940013 368.4813132 219.47044405C283.30153709 151.9963445000001 175.98449726 111.7863175 59.3746871575 111.7863175C39.284580907 111.7863175 19.474063323 112.9741041 0.0023693957215 115.30897235C110.146098205 43.92904945 240.97228298 2.2845822999999 381.5248365500001 2.2845822999999C839.3181511 2.2845822999999 1089.66139425 385.59094717 1089.66139425 718.00436851C1089.66139425 728.909999675 1089.41497665 739.75815771 1088.93872945 750.5488419000001C1137.57294365 786.01250013 1179.76951235 830.31513136 1213.1353448500001 880.757868705z" />
  </font>
</defs>
</svg>
