<?xml version="1.0" encoding="UTF-8"?>
<svg width="15px" height="18px" viewBox="0 0 15 18" version="1.1" xmlns="http://www.w3.org/2000/svg" xmlns:xlink="http://www.w3.org/1999/xlink">
    <g id="Page-1" stroke="none" stroke-width="1" fill="none" fill-rule="evenodd">
        <g id="Dashboard" transform="translate(-1326.000000, -26.000000)" fill-rule="nonzero">
                <g id="notifications" transform="translate(1326.000000, 26.000000)">
                    <g id="notifications-button" transform="translate(7.500000, 9.000000) scale(-1, 1) translate(-7.500000, -9.000000) ">
                        <path d="M7.5,18 C8.47058824,18 9.26470588,17.19 9.26470588,16.2 L5.73529412,16.2 C5.73529412,17.19 6.52941176,18 7.5,18 Z M13.2352941,12.6 L13.2352941,7.65 C13.2352941,4.86 11.3823529,2.61 8.82352941,1.98 L8.82352941,1.35 C8.82352941,0.63 8.20588235,0 7.5,0 C6.79411765,0 6.17647059,0.63 6.17647059,1.35 L6.17647059,1.98 C3.61764706,2.61 1.76470588,4.86 1.76470588,7.65 L1.76470588,12.6 L0,14.4 L0,15.3 L15,15.3 L15,14.4 L13.2352941,12.6 Z" id="Shape"></path>
                    </g>
                </g>
        </g>
    </g>
</svg>