<?xml version="1.0" encoding="UTF-8"?>
<svg width="10px" height="10px" viewBox="0 0 10 10" version="1.1" xmlns="http://www.w3.org/2000/svg" xmlns:xlink="http://www.w3.org/1999/xlink">
    <!-- Generator: Sketch 47.1 (45422) - http://www.bohemiancoding.com/sketch -->
    <title>Fill 1</title>
    <desc>Created with Sketch.</desc>
    <defs></defs>
    <g id="Page-1" stroke="none" stroke-width="1" fill="none" fill-rule="evenodd">
        <g id="BOM-Manager" transform="translate(-235.000000, -363.000000)" fill="#417505">
            <g id="#3---BOM-Line-Collapsed" transform="translate(26.000000, 293.000000)">
                <g id="Header,-Left-Side" transform="translate(57.000000, 17.000000)">
                    <g id="Conflict-Minerals" transform="translate(72.000000, 50.000000)">
                        <g id="checkmark-verify-interface-symbol-button" transform="translate(80.000000, 3.000000)">
                            <path d="M6.77730769,2.81585284 C6.63,2.73528428 6.44230769,2.78274247 6.35653846,2.92364548 L4.39,6.18428094 L3.28884615,5.21304348 C3.17153846,5.09347826 2.97769231,5.08795987 2.85461538,5.19832776 C2.73,5.31053512 2.72384615,5.49595318 2.83961538,5.6151505 L4.24576923,6.8567893 C4.36307692,6.97488294 4.55692308,6.98040134 4.68153846,6.86966555 C4.71923077,6.83692308 6.89,3.21832776 6.89,3.21832776 C6.97576923,3.07742475 6.92461538,2.89789298 6.77730769,2.81585284 Z M4.92346154,0.147157191 C2.20384615,0.147157191 0,2.25518395 0,4.85655518 C0,7.45755853 2.20384615,9.56595318 4.92346154,9.56595318 C7.64269231,9.56595318 9.84692308,7.45755853 9.84692308,4.85655518 C9.84692308,2.25518395 7.64269231,0.147157191 4.92346154,0.147157191 Z M4.92346154,8.97658863 C2.54346154,8.97658863 0.616153846,7.13123746 0.616153846,4.85655518 C0.616153846,2.58003344 2.54346154,0.736521739 4.92346154,0.736521739 C7.30153846,0.736521739 9.23076923,2.58003344 9.23076923,4.85655518 C9.23076923,7.13123746 7.30153846,8.97658863 4.92346154,8.97658863 Z" id="Fill-1"></path>
                        </g>
                    </g>
                </g>
            </g>
        </g>
    </g>
</svg>