<?xml version="1.0" encoding="UTF-8"?>
<svg width="9px" height="9px" viewBox="0 0 9 9" version="1.1" xmlns="http://www.w3.org/2000/svg" xmlns:xlink="http://www.w3.org/1999/xlink">
    <!-- Generator: Sketch 46.2 (44496) - http://www.bohemiancoding.com/sketch -->
    <title>cross-remove-sign</title>
    <desc>Created with Sketch.</desc>
    <defs></defs>
    <g id="Page-1" stroke="none" stroke-width="1" fill="none" fill-rule="evenodd">
        <g id="Assembly-Home" transform="translate(-901.000000, -599.000000)">
            <g id="Assembly-#1" transform="translate(105.000000, 307.000000)">
                <g id="#3---BOM-Line-Collapsed-Copy-3" transform="translate(1.000000, 231.000000)">
                    <g id="Header,-Right-Side" transform="translate(527.000000, 13.000000)">
                        <g id="Group-25" transform="translate(145.000000, 40.000000)">
                            <g id="Datasheet-Copy" transform="translate(111.000000, 0.000000)">
                                <path d="M17.659253,12.5 L20.9450322,9.44789848 C21.0183226,9.3746124 21.0183226,9.25594757 20.9450322,9.18266149 L19.8172985,8.05499388 C19.7824709,8.0196993 19.7343924,8 19.6849067,8 C19.634952,8 19.5873426,8.0196993 19.5520459,8.05499388 L16.5,11.1068609 L13.4479541,8.05499388 C13.3773608,7.98440472 13.2528258,7.98440472 13.1827015,8.05499388 L12.0549678,9.18266149 C11.9816774,9.25594757 11.9816774,9.3746124 12.0549678,9.44789848 L15.1070137,12.4997655 L12.0549678,15.5516325 C11.9816774,15.6249186 11.9816774,15.7435834 12.0549678,15.8168695 L13.1827015,16.9445371 C13.2175291,16.9798317 13.2656076,16.999531 13.3150933,16.999531 C13.365048,16.999531 13.4126574,16.9798317 13.4479541,16.9445371 L16.5,13.8926701 L19.5520459,16.9445371 C19.5873426,16.9798317 19.634952,17 19.6849067,17 C19.7343924,17 19.7824709,16.9798317 19.8172985,16.9445371 L20.9450322,15.8173385 C21.0183226,15.7440524 21.0183226,15.6249186 20.9450322,15.5516325 L17.659253,12.5 Z" id="cross-remove-sign"></path>
                            </g>
                        </g>
                    </g>
                </g>
            </g>
        </g>
    </g>
</svg>