<?xml version="1.0" encoding="UTF-8"?>
<svg width="9px" height="17px" viewBox="0 0 9 17" version="1.1" xmlns="http://www.w3.org/2000/svg" xmlns:xlink="http://www.w3.org/1999/xlink">
    <g id="Page-1" stroke="none" stroke-width="1" fill="none" fill-rule="evenodd">
        <g id="BLOG-ARTICLE" transform="translate(-1182.000000, -2353.000000)" fill-rule="nonzero" fill="#FFFFFF">
            <g id="Footer" transform="translate(0.000000, 1991.000000)">
                <g id="Bottom-footer" transform="translate(0.000000, 333.000000)">
                    <g id="facebook-logo" transform="translate(1182.000000, 29.000000)">
                        <g id="Capa_1">
                            <path d="M8.50567925,0.00350515464 L6.38898113,0 C4.0109434,0 2.47415094,1.62726804 2.47415094,4.14589691 L2.47415094,6.05743299 L0.34590566,6.05743299 C0.162,6.05743299 0.0130754717,6.21130928 0.0130754717,6.4011134 L0.0130754717,9.17071134 C0.0130754717,9.36051546 0.162169811,9.51421649 0.34590566,9.51421649 L2.47415094,9.51421649 L2.47415094,16.5027938 C2.47415094,16.6925979 2.62307547,16.846299 2.80698113,16.846299 L5.58373585,16.846299 C5.76764151,16.846299 5.91656604,16.6924227 5.91656604,16.5027938 L5.91656604,9.51421649 L8.40498113,9.51421649 C8.58888679,9.51421649 8.73781132,9.36051546 8.73781132,9.17071134 L8.73883019,6.4011134 C8.73883019,6.30997938 8.70367925,6.22270103 8.64135849,6.15820619 C8.57903774,6.09371134 8.49413208,6.05743299 8.40583019,6.05743299 L5.91656604,6.05743299 L5.91656604,4.437 C5.91656604,3.65815464 6.09639623,3.2627732 7.07943396,3.2627732 L8.50533962,3.26224742 C8.68907547,3.26224742 8.838,3.10837113 8.838,2.91874227 L8.838,0.347010309 C8.838,0.157556701 8.68924528,0.0038556701 8.50567925,0.00350515464 Z" id="Shape"></path>
                        </g>
                    </g>
                </g>
            </g>
        </g>
    </g>
</svg>
