<?xml version="1.0" encoding="UTF-8"?>
<svg width="11px" height="11px" viewBox="0 0 11 11" version="1.1" xmlns="http://www.w3.org/2000/svg" xmlns:xlink="http://www.w3.org/1999/xlink">
    <!-- Generator: Sketch 47.1 (45422) - http://www.bohemiancoding.com/sketch -->
    <title>Fill 3</title>
    <desc>Created with Sketch.</desc>
    <defs></defs>
    <g id="Page-1" stroke="none" stroke-width="1" fill="none" fill-rule="evenodd">
        <g id="BOM-Manager" transform="translate(-897.000000, -357.000000)" fill="#373737">
            <g id="#3---BOM-Line-Collapsed" transform="translate(26.000000, 293.000000)">
                <g id="Header,-Right-Side" transform="translate(712.000000, 17.000000)">
                    <g id="Group-25" transform="translate(35.000000, 40.000000)">
                        <g id="Datasheet" transform="translate(113.000000, 0.000000)">
                            <g id="pdf-file-format-symbol" transform="translate(11.000000, 7.000000)">
                                <path d="M9.44497989,3.93456043 L9.1719181,3.93456043 L9.1719181,2.66015539 C9.1719181,2.65233695 9.17038326,2.64384451 9.16926701,2.63602608 C9.16870889,2.58547585 9.15238379,2.53600402 9.11638484,2.49650744 L6.92100711,0.0737359378 C6.92044899,0.0731967354 6.91989087,0.0726575329 6.91933274,0.0721183304 C6.90621685,0.0579642656 6.89100799,0.0463714125 6.87510148,0.0363961668 C6.8702179,0.0331609519 6.86533432,0.0305997402 6.86045074,0.0279037278 C6.8462186,0.0204896939 6.83156787,0.0141540649 6.81635901,0.0099752457 C6.81189402,0.00889684076 6.80868481,0.00741403397 6.80435936,0.00633562903 C6.78789472,0.00269601235 6.77045337,0 6.75301202,0 L1.35819288,0 C1.111921,0 0.911275704,0.193843288 0.911275704,0.431227176 L0.911275704,3.93456043 L0.638213913,3.93456043 C0.285619563,3.93456043 0,4.21036249 0,4.55113845 L0,7.75683194 C0,8.0974731 0.285619563,8.37340997 0.638213913,8.37340997 L0.911275704,8.37340997 L0.911275704,10.5680988 C0.911275704,10.8061567 1.111921,11 1.35819288,11 L8.72500092,11 C8.97141233,11 9.1719181,10.8061567 9.1719181,10.5680988 L9.1719181,8.37394917 L9.44497989,8.37394917 C9.79771377,8.37394917 10.0833333,8.0974731 10.0833333,7.75737114 L10.0833333,4.55113845 C10.0833333,4.21036249 9.79771377,3.93456043 9.44497989,3.93456043 Z M1.35819288,0.431227176 L6.5296232,0.431227176 L6.5296232,2.63858729 C6.5296232,2.75761623 6.62994585,2.85399868 6.75301202,2.85399868 L8.72500092,2.85399868 L8.72500092,3.93456043 L1.35819288,3.93456043 L1.35819288,0.431227176 Z M6.83924206,6.17130708 C6.83924206,6.7878851 6.60650467,7.21291145 6.28488616,7.47617705 C5.93382665,7.75791035 5.39970272,7.89163256 4.74683807,7.89163256 C4.3565704,7.89163256 4.07904363,7.86790765 3.89109563,7.84418274 L3.89109563,4.68068185 C4.16792475,4.63741085 4.52930954,4.61382074 4.91022865,4.61382074 C5.54314039,4.61382074 5.95350049,4.72327884 6.275119,4.95756231 C6.62171353,5.20613465 6.83924206,5.60271807 6.83924206,6.17130708 Z M1.01704006,7.85847161 L1.01704006,4.68068185 C1.24921932,4.64226367 1.57572141,4.61382074 2.03575448,4.61382074 C2.50067113,4.61382074 2.83261492,4.69955393 3.05502703,4.87182912 C3.26753245,5.03399426 3.41083059,5.30197789 3.41083059,5.61741134 C3.41083059,5.93284478 3.30241515,6.20028921 3.10400234,6.38200044 C2.84670753,6.61574471 2.46634655,6.72102399 2.02096422,6.72102399 C1.92175781,6.72102399 1.83301622,6.71630597 1.76380894,6.70686993 L1.76380894,7.85847161 L1.01704006,7.85847161 Z M1.35819288,10.4517659 L8.72500092,10.4517659 L8.72500092,8.37394917 L1.35819288,8.37394917 L1.35819288,10.4517659 Z M9.37200528,5.23457758 L8.09111246,5.23457758 L8.09111246,5.97072376 L9.28800773,5.97072376 L9.28800773,6.56317247 L8.09111246,6.56317247 L8.09111246,7.85847161 L7.33457643,7.85847161 L7.33457643,4.63741085 L9.37200528,4.63741085 L9.37200528,5.23457758 Z M4.8084204,5.5 C5.23577295,5.5 5.50328239,5.80158677 5.49996958,6.37201662 C5.49996958,7.02769499 5.20632574,7.33686451 4.75624363,7.33330292 C4.69449653,7.33330292 4.62575571,7.33330292 4.58333333,7.32077989 L4.58333333,5.52470139 C4.62575571,5.51252303 4.69734923,5.5 4.8084204,5.5 Z M2.75,5.93445794 C2.75,6.23692083 2.49799835,6.41666667 2.09016478,6.41666667 C1.97978976,6.41666667 1.89881967,6.41233693 1.83333333,6.39922402 L1.83333333,5.52659694 C1.88873392,5.5129892 1.99470531,5.5 2.15067927,5.5 C2.53294333,5.5 2.75,5.66230319 2.75,5.93445794 Z" id="Fill-3"></path>
                            </g>
                        </g>
                    </g>
                </g>
            </g>
        </g>
    </g>
</svg>