<?xml version="1.0" encoding="UTF-8"?>
<svg width="15px" height="14px" viewBox="0 0 15 14" version="1.1" xmlns="http://www.w3.org/2000/svg" xmlns:xlink="http://www.w3.org/1999/xlink">
    <!-- Generator: Sketch 46.2 (44496) - http://www.bohemiancoding.com/sketch -->
    <title>home</title>
    <desc>Created with Sketch.</desc>
    <defs></defs>
    <g id="Page-1" stroke="none" stroke-width="1" fill="none" fill-rule="evenodd">
        <g id="home" fill-rule="nonzero">
            <path d="M0,7.17545455 C0,7.17545455 0.460909091,8.02772727 1.47,7.17545455 L7.48909091,2.08295455 L13.1359091,7.14340909 C14.3025,7.98477273 14.7388636,7.14340909 14.7388636,7.14340909 L7.48909091,0.578181818 L0,7.17545455 Z" id="Fill-3"></path>
            <path d="M2.00318182,13.3063636 C2.00318182,13.3063636 1.99227273,13.6363636 2.31204545,13.6363636 C2.71363636,13.6363636 6.02727273,13.6315909 6.02727273,13.6315909 L6.03272727,10.5872727 C6.03272727,10.5872727 5.98159091,10.0861364 6.46909091,10.0861364 L8.00863636,10.0861364 C8.58681818,10.0861364 8.54931818,10.5872727 8.54931818,10.5872727 L8.54386364,13.6234091 L12.1793182,13.6234091 C12.5897727,13.6234091 12.5713636,13.2129545 12.5713636,13.2129545 L12.5713636,7.59886364 L7.44409091,3.04159091 L2.00318182,7.59886364 L2.00318182,13.3063636 Z" id="Fill-1"></path>
            <polygon id="Fill-5" points="11 2 10 2 10.0032895 3.76796715 11 5"></polygon>
        </g>
    </g>
</svg>