<?xml version="1.0" encoding="UTF-8"?>
<svg width="11px" height="11px" viewBox="0 0 11 11" version="1.1" xmlns="http://www.w3.org/2000/svg" xmlns:xlink="http://www.w3.org/1999/xlink">
    <!-- Generator: Sketch 47.1 (45422) - http://www.bohemiancoding.com/sketch -->
    <title>Fill 1</title>
    <desc>Created with Sketch.</desc>
    <defs></defs>
    <g id="Page-1" stroke="none" stroke-width="1" fill="none" fill-rule="evenodd">
        <g id="BOM-Manager" transform="translate(-1059.000000, -716.000000)" fill="#417505">
            <g id="#1---BOM-Line-Copy" transform="translate(26.000000, 420.000000)">
                <g id="Bottom-Filter" transform="translate(62.000000, 295.000000)">
                    <g id="two-circling-arrows" transform="translate(971.000000, 1.000000)">
                        <path d="M3.30496656,8.61877774 C2.42053344,7.9073463 1.85387709,6.81531118 1.85387709,5.5918555 C1.85387709,3.78140817 3.09281187,2.26627774 4.76819649,1.83347004 L4.76819649,0.83279195 C2.55104348,1.28229279 0.882943144,3.24206787 0.882943144,5.5918555 C0.882943144,7.04294496 1.52092475,8.34470667 2.52979766,9.23399596 C3.31103679,9.96212055 3.79726254,8.99088309 3.30496656,8.61877774 Z M8.90718562,1.91299011 C8.41033696,1.46379279 7.68099833,2.1928279 8.15902926,2.5530963 C9.05165719,3.26452774 9.62438378,4.36111553 9.62438378,5.5918555 C9.62438378,7.40108877 8.385449,8.91743325 6.71006438,9.3490269 L6.71006438,10.350919 C8.92721739,9.90020416 10.5953177,7.94042907 10.5953177,5.5918555 C10.5953177,4.12073426 9.94094649,2.80349346 8.90718562,1.91299011 Z M5.19736204,2.67298342 L6.77774749,1.72572339 C7.00780936,1.58823259 7.00780936,1.36393744 6.77896154,1.22523259 L5.18309699,0.260368873 C4.95424916,0.121664024 4.76941054,0.225768539 4.77062458,0.493769375 L4.7788194,2.43715483 C4.7788194,2.70485215 4.96730017,2.81047422 5.19736204,2.67298342 Z M6.29516388,8.51558376 L4.69929933,9.48075098 C4.47045151,9.61945583 4.47045151,9.84344747 4.70051338,9.98215232 L6.28089883,10.9281983 C6.5109607,11.0656891 6.69944147,10.9603705 6.70065552,10.6923697 L6.70885033,8.74928777 C6.70885033,8.48128693 6.52401171,8.37687891 6.29516388,8.51558376 Z" id="Fill-1"></path>
                    </g>
                </g>
            </g>
        </g>
    </g>
</svg>