<?xml version="1.0" encoding="UTF-8"?>
<svg width="12px" height="12px" viewBox="0 0 12 12" version="1.1" xmlns="http://www.w3.org/2000/svg" xmlns:xlink="http://www.w3.org/1999/xlink">
    <!-- Generator: Sketch 46.2 (44496) - http://www.bohemiancoding.com/sketch -->
    <title>save-file-option</title>
    <desc>Created with Sketch.</desc>
    <defs></defs>
    <g id="Page-1" stroke="none" stroke-width="1" fill="none" fill-rule="evenodd">
        <g id="save" fill-rule="nonzero">
            <path d="M11.8437,2.60630176 C11.73965,2.35674625 11.61464,2.86461434 11.46864,2.71850091 L9.28111,0.53147412 C9.13548,0.38536069 8.93734,0.26034321 8.68742,0.15642168 C8.43739,0.0520207 8.20832,0 8,0 L0.75011,0 C0.54179,0 0.36475,0.07311665 0.21863,0.21875062 C0.073,0.36426474 0,0.54178237 0,0.75010488 L0,11.2498951 C0,11.4582176 0.073,11.6357353 0.21863,11.7812494 C0.36475,11.9268834 0.54179,12 0.75011,12 L11.24989,12 C11.45833,12 11.63573,11.9268834 11.78137,11.7812494 C11.927,11.6357353 12,11.4582176 12,11.2498951 L12,3.99996005 C12,3.79163753 11.9481,2.85681617 11.8437,2.60630176 Z M4.94118,1.64710583 C4.94118,1.58325009 4.96745,1.52808144 5.0195,1.48137423 C5.07205,1.43511831 5.13399,1.41176471 5.20596,1.41176471 L6.79455,1.41176471 C6.86601,1.41176471 6.92795,1.43466703 6.9805,1.48137423 C7.03306,1.52808144 7.05882,1.58325009 7.05882,1.64710583 L7.05882,4.0000658 C7.05882,4.0639216 7.03255,4.1189774 6.9805,4.1656846 C6.92795,4.2119405 6.86601,4.2352941 6.79455,4.2352941 L5.20596,4.2352941 C5.13399,4.2352941 5.07205,4.2119405 5.0195,4.1656846 C4.96745,4.1189774 4.94118,4.0639216 4.94118,4.0000658 L4.94118,1.64710583 Z M2.82353,10.5882353 L8.47059,10.5882353 L8.47059,7.7647059 L2.82353,7.7647059 L2.82353,10.5882353 Z M10.58824,11.2941176 L9.59951,11.2941176 L9.59951,8.0824062 C9.59951,7.8764104 9.52773,7.7015686 9.38346,7.5571701 C9.23954,7.4132454 9.06458,7.3411054 8.85871,7.3411054 L2.43493,7.3411054 C2.22906,7.3411054 2.05422,7.4132454 1.90983,7.5571701 C1.76591,7.7015686 1.69377,7.8764104 1.69377,8.0824062 L1.69377,11.2941176 L0.70588,11.2941176 L0.70588,1.41176471 L1.69377,1.41176471 L1.69377,4.6234761 C1.69377,4.829472 1.76591,5.0043138 1.90983,5.1487123 C2.05422,5.2926369 2.22906,5.364777 2.43493,5.364777 L6.88198,5.364777 C7.08797,5.364777 7.26328,5.2926369 7.4072,5.1487123 C7.55112,5.0043138 7.62326,4.829472 7.62326,4.6234761 L7.62326,1.41176471 C7.70061,1.41176471 7.80094,1.43723286 7.92448,1.48864298 C8.04803,1.54040848 8.13544,1.5918186 8.18685,1.64311027 L10.35642,3.8128782 C10.40831,3.86416987 10.45971,3.95301225 10.511,4.0794053 C10.56241,4.2052062 10.58824,4.3042358 10.58824,4.3763758 L10.58824,11.2941176 Z" id="save-file-option"></path>
        </g>
    </g>
</svg>