<?xml version="1.0" encoding="UTF-8"?>
<svg width="17px" height="17px" viewBox="0 0 17 17" version="1.1" xmlns="http://www.w3.org/2000/svg" xmlns:xlink="http://www.w3.org/1999/xlink">
    <!-- Generator: Sketch 46.2 (44496) - http://www.bohemiancoding.com/sketch -->
    <title>Shape</title>
    <desc>Created with Sketch.</desc>
    <defs></defs>
    <g id="Page-1" stroke="none" stroke-width="1" fill="none" fill-rule="evenodd">
        <g id="Dashboard" transform="translate(-1358.000000, -26.000000)">
            <g id="Nav">
                <g id="gear" transform="translate(1358.000000, 26.000000)">
                    <path d="M16.9468053,7.55617415 C16.9199224,7.31720685 16.641289,7.13763349 16.400355,7.13763349 C15.6213833,7.13763349 14.9301448,6.68025589 14.6402523,5.97290509 C14.3440976,5.2484129 14.535061,4.40348828 15.1156052,3.87096692 C15.2983457,3.70391751 15.3205478,3.42427896 15.1672837,3.23003106 C14.7685944,2.72375941 14.3154435,2.26644507 13.8206716,1.87010597 C13.626925,1.71463174 13.342662,1.73626404 13.1746597,1.92228914 C12.667996,2.48340056 11.7578991,2.69194349 11.0546423,2.39851593 C10.3227948,2.09066684 9.86129447,1.34909653 9.90645775,0.553065956 C9.92132242,0.303029497 9.73858193,0.0856312392 9.48929836,0.0565984198 C8.85435582,-0.016837535 8.21384695,-0.0191146189 7.5770068,0.0515382335 C7.33056965,0.0787367353 7.14782916,0.291011554 7.15611542,0.537885397 C7.18382063,1.32607268 6.71675391,2.05467627 5.99218062,2.3514562 C5.29733665,2.6352694 4.39362835,2.42849753 3.88797676,1.87238305 C3.72085999,1.6892043 3.44121455,1.66668647 3.24651908,1.81842881 C2.73707226,2.21812029 2.27373753,2.67581414 1.87137954,3.17791114 C1.71444665,3.37310783 1.73753432,3.6560355 1.92210916,3.82397043 C2.51372278,4.35971767 2.70474953,5.21197956 2.39739888,5.94482105 C2.10396409,6.64350629 1.37844199,7.09379962 0.54785518,7.09379962 C0.278330361,7.08513405 0.0863548089,7.26603572 0.0568784969,7.51107524 C-0.0178875994,8.14967076 -0.0187731538,8.80034748 0.0532097713,9.44412969 C0.0799029123,9.68410903 0.367012312,9.86210109 0.610603037,9.86210109 C1.35080004,9.84318864 2.06145748,10.3014518 2.35957306,11.0268927 C2.65673982,11.7513849 2.46571308,12.5958035 1.88428334,13.1287677 C1.70242841,13.2958171 1.67934074,13.5750128 1.83260491,13.7692608 C2.22756219,14.2723065 2.6807763,14.7300636 3.17731933,15.1296919 C3.37207805,15.2866209 3.65545547,15.2644826 3.8242801,15.0784575 C4.33284136,14.5159545 5.24287506,14.3077911 5.94334862,14.6017879 C6.67703047,14.9086882 7.13853084,15.6501953 7.09336757,16.4466686 C7.07862941,16.6968316 7.26225545,16.9146094 7.51052696,16.9431994 C7.83533568,16.9810876 8.16210527,17 8.48976041,17 C8.80077978,17 9.1118624,16.9829219 9.42288177,16.9483228 C9.66938218,16.9211243 9.85199615,16.7088495 9.84370989,16.4615329 C9.81518239,15.6737884 10.2830714,14.9451848 11.0066959,14.6489109 C11.7062206,14.3632001 12.6061337,14.5723123 13.1118486,15.1278575 C13.2799141,15.3106568 13.5575987,15.3327318 13.7533695,15.1814955 C14.2618675,14.7827528 14.7242534,14.3254385 15.128509,13.8219499 C15.2853787,13.627196 15.2632398,13.3438256 15.0777162,13.1759539 C14.4861025,12.6402067 14.294127,11.7878183 14.6014776,11.0554828 C14.8904214,10.3660957 15.5889973,9.9032151 16.3403903,9.9032151 L16.4455182,9.90593495 C16.6892355,9.92573293 16.9134705,9.73800002 16.9430101,9.4892286 C17.0179027,8.85006381 17.0187882,8.19995637 16.9468053,7.55617415 Z M8.51348062,11.3532115 C6.949971,11.3532115 5.67818832,10.0814602 5.67818832,8.51798908 C5.67818832,6.95458124 6.949971,5.68276665 8.51348062,5.68276665 C10.076927,5.68276665 11.3487097,6.95458124 11.3487097,8.51798908 C11.3487097,10.0814602 10.076927,11.3532115 8.51348062,11.3532115 Z" id="Shape"></path>
                </g>
            </g>
        </g>
    </g>
</svg>