<?xml version="1.0" encoding="UTF-8"?>
<svg width="15px" height="14px" viewBox="0 0 15 14" version="1.1" xmlns="http://www.w3.org/2000/svg" xmlns:xlink="http://www.w3.org/1999/xlink">
    <!-- Generator: Sketch 46.2 (44496) - http://www.bohemiancoding.com/sketch -->
    <title>sent-mail</title>
    <desc>Created with Sketch.</desc>
    <defs>
        <polygon id="path-1" points="0.00335820896 0.0187611905 0.00335820896 13.9438313 14.9776732 13.9438313 14.9776732 0.0187611905 0.00335820896 0.0187611905"></polygon>
    </defs>
    <g id="Page-1" stroke="none" stroke-width="1" fill="none" fill-rule="evenodd">
        <g id="DIFFERENTIATORS" transform="translate(-1174.000000, -2706.000000)">
            <g id="Footer" transform="translate(1.000000, 2568.000000)">
                <g id="sent-mail" transform="translate(1173.000000, 138.000000)">
                    <mask id="mask-2" fill="white">
                        <use xlink:href="#path-1"></use>
                    </mask>
                    <g id="Clip-2"></g>
                    <path d="M14.9013806,0.074497992 C14.8347201,0.0158554217 14.7398507,0.00224899598 14.6593657,0.0395823293 L0.129626866,6.82126104 C0.051380597,6.8579759 0.000895522388,6.93635341 -3.78300127e-14,7.02288353 C-0.000895522388,7.10941365 0.0478544776,7.18891566 0.125261194,7.22714859 L4.23710821,9.25433735 C4.31255597,9.29167068 4.40238806,9.28306827 4.46972015,9.23257831 L8.46766791,6.2308996 L5.32919776,9.47395181 C5.28436567,9.52028112 5.26164179,9.58353414 5.26645522,9.64791165 L5.57910448,13.7360803 C5.58587687,13.8267711 5.64643657,13.9040803 5.73235075,13.9326426 C5.75529851,13.9400643 5.77891791,13.9438313 5.80231343,13.9438313 C5.86617537,13.9438313 5.92847015,13.9161687 5.97173507,13.8658474 L8.1541791,11.3252129 L10.8523321,12.6203534 C10.910709,12.6484659 10.9786567,12.6495341 11.038153,12.6233896 C11.0975933,12.5975261 11.1428731,12.546755 11.1623507,12.4846265 L14.9674254,0.311036145 C14.9938993,0.226024096 14.968097,0.133365462 14.9013806,0.074497992 Z" id="Fill-1" fill="#595959" mask="url(#mask-2)"></path>
                </g>
            </g>
        </g>
    </g>
</svg>