<?xml version="1.0" encoding="UTF-8"?>
<svg width="17px" height="14px" viewBox="0 0 17 14" version="1.1" xmlns="http://www.w3.org/2000/svg" xmlns:xlink="http://www.w3.org/1999/xlink">
    <g id="Page-1" stroke="none" stroke-width="1" fill="none" fill-rule="evenodd">
        <g id="BLOG-ARTICLE" transform="translate(-1209.000000, -2355.000000)" fill-rule="nonzero" fill="#FFFFFF">
            <g id="Footer" transform="translate(0.000000, 1991.000000)">
                <g id="Bottom-footer" transform="translate(0.000000, 333.000000)">
                    <g id="twitter" transform="translate(1209.000000, 31.000000)">
                        <g id="Capa_1">
                            <path d="M16.9669279,1.68170813 C16.3426004,1.96150718 15.6718129,2.15064115 14.9676881,2.23567943 C15.6863275,1.80027273 16.2382807,1.11082297 16.4982183,0.289244019 C15.8255419,0.692464115 15.0806569,0.98522488 14.2877212,1.14297608 C13.6527895,0.459220096 12.748078,0.0320191388 11.7468674,0.0320191388 C9.82447563,0.0320191388 8.26594347,1.60715311 8.26594347,3.55007177 C8.26594347,3.82581818 8.29672904,4.09433014 8.35607992,4.35185646 C5.46309747,4.20509091 2.89815205,2.80448804 1.18131774,0.67591866 C0.881680312,1.19552632 0.709990253,1.79987081 0.709990253,2.44464115 C0.709990253,3.66525359 1.32450877,4.74211483 2.25854776,5.37301914 C1.68793762,5.35473206 1.15119493,5.19647847 0.681922027,4.93295694 C0.681590643,4.94762679 0.681590643,4.96236364 0.681590643,4.97720096 C0.681590643,6.68178469 1.88149903,8.103689 3.4738655,8.42696172 C3.18181676,8.507311 2.87425926,8.55044976 2.55679337,8.55044976 C2.33247953,8.55044976 2.11442885,8.5283445 1.901846,8.48721531 C2.34484016,9.88487081 3.63034503,10.9021818 5.1535848,10.9304833 C3.96225926,11.874177 2.46132164,12.436555 0.830415205,12.436555 C0.549434698,12.436555 0.272364522,12.4199426 3.31384017e-05,12.3872871 C1.54050487,13.3856077 3.37024172,13.9680478 5.3360117,13.9680478 C11.7387154,13.9680478 15.2400195,8.60711962 15.2400195,3.95798086 C15.2400195,3.80545455 15.2365731,3.65373206 15.2299123,3.5028134 C15.9101111,3.00681818 16.5002729,2.38720096 16.9669279,1.68170813 Z" id="Shape"></path>
                        </g>
                    </g>
                </g>
            </g>
        </g>
    </g>
</svg>
